SplineFontDB: 3.2
FontName: KorinaRajcevic
FullName: KorinaRajcevic
FamilyName: KorinaRajcevic
Weight: Regular
Copyright: Copyright (c) 2024, korin
UComments: "2024-3-17: Created with FontForge (http://fontforge.org)"
Version: 001.000
ItalicAngle: 0
UnderlinePosition: -100
UnderlineWidth: 50
Ascent: 800
Descent: 200
InvalidEm: 0
LayerCount: 5
Layer: 0 0 "Stra+AX4A-nji" 1
Layer: 1 0 "Prednji" 0
Layer: 2 0 "Stra+AX4A-nji 2" 0
Layer: 3 0 "Stra+AX4A-nji 3" 0
Layer: 4 0 "Stra+AX4A-nji 4" 0
XUID: [1021 269 724208845 29603]
OS2Version: 0
OS2_WeightWidthSlopeOnly: 0
OS2_UseTypoMetrics: 1
CreationTime: 1710697014
ModificationTime: 1710831633
OS2TypoAscent: 0
OS2TypoAOffset: 1
OS2TypoDescent: 0
OS2TypoDOffset: 1
OS2TypoLinegap: 0
OS2WinAscent: 0
OS2WinAOffset: 1
OS2WinDescent: 0
OS2WinDOffset: 1
HheadAscent: 0
HheadAOffset: 1
HheadDescent: 0
HheadDOffset: 1
OS2Vendor: 'PfEd'
MarkAttachClasses: 1
DEI: 91125
Encoding: iso8859-2
UnicodeInterp: none
NameList: AGL For New Fonts
DisplaySize: -48
AntiAlias: 1
FitToEm: 0
WinInfo: 0 38 13
BeginPrivate: 0
EndPrivate
BeginChars: 256 21

StartChar: K
Encoding: 75 75 0
Width: 542
Flags: HW
LayerCount: 5
Fore
SplineSet
106 0 m 1
 115.887050093 268.500597316 105.036415704 530.41499205 90 791 c 9
 242 799 l 1
 258 384 l 17
 317.642756063 505.366325064 358.941423435 634.851321694 401 764 c 9
 529 734 l 1
 492 576 429.97062845 409.193759205 328 272 c 1
 380.578303214 203.364532786 407.573592212 122.737586948 445 47 c 1
 445 47 323.13549961 -0.502632147738 324 0 c 0
 334.549493633 6.13361740995 252.363773124 193.529863858 241 188 c 1
 244.634260595 188.859947142 239.365393335 -0.257183605763 232 0 c 0
 230.001218142 0.0697931396375 106 0 106 0 c 1
EndSplineSet
EndChar

StartChar: a
Encoding: 97 97 1
Width: 467
Flags: HW
LayerCount: 5
Fore
SplineSet
217 260 m 1
 158.864257812 229.793945312 161.272460938 196.7890625 159 164 c 1
 163 118 209 102 237 105 c 1
 283.861328125 111.727539062 308 134 309 169 c 1
 307.649414062 251.219726562 260 275 217 260 c 1
315 400 m 1
 314 438 l 1
 441 445 l 17
 433.606445312 297.98046875 435.744140625 153.686523438 447 12 c 1
 341 4 l 25
 334 62 l 1
 242.540039062 -41.3974609375 109 22.4296875 72 63 c 1
 10 130 2 236 48 331 c 1
 94.216796875 434.974609375 214 483 315 400 c 1
EndSplineSet
EndChar

StartChar: R
Encoding: 82 82 2
Width: 542
Flags: HW
LayerCount: 5
Fore
SplineSet
262 709 m 1
 234 705 200 674 204 628 c 1
 211.271839461 582.544324087 245 572 263 568 c 1
 349.173828125 566.84765625 341 639 341 638 c 1
 336 671 315.448242188 711.001953125 262 709 c 1
112 -2 m 1
 116.693359375 257.359375 104.615234375 526.133789062 80 775 c 1
 160 791.530273438 252 801.326171875 312 799 c 1
 438 799 548.201171875 678.083984375 428 516 c 1
 386 468 311 459 276 474 c 1
 353.45703125 335.819335938 432.229492188 242.845703125 516 126 c 1
 382 18 l 1
 242 270 l 1
 248 10 l 25
 112 -2 l 1
EndSplineSet
EndChar

StartChar: o
Encoding: 111 111 3
Width: 498
Flags: HW
LayerCount: 5
Fore
SplineSet
250 269 m 1
 218 265 185 248 174 213 c 1
 152 132 224 112 250 116 c 1
 274 117 322 138 328 194 c 0
 330.663085938 218.857421875 307.477539062 279.155273438 250 269 c 1
246 2 m 1
 107 12 13 95 24 256 c 1
 35 362 108.455078125 454.87890625 266 442 c 1
 366.404296875 430.428710938 427 388 459 278 c 1
 481 148 391 -1 246 2 c 1
EndSplineSet
EndChar

StartChar: r
Encoding: 114 114 4
Width: 415
Flags: HW
LayerCount: 5
Fore
SplineSet
41 3 m 1
 53.716796875 155.333007812 53.30859375 307.666992188 38 460 c 1
 163 471 l 1
 170.852539062 409.576171875 167.661132812 371.934570312 166 331 c 1
 216.6328125 388.521484375 257.732421875 443.280273438 319 477 c 1
 393 410 l 1
 315.40625 343.954101562 264.259765625 318.733398438 177 198 c 1
 179.481445312 107.915039062 166.330078125 48.232421875 170 3 c 1
 41 3 l 1
EndSplineSet
EndChar

StartChar: i
Encoding: 105 105 5
Width: 216
Flags: HW
LayerCount: 5
Fore
SplineSet
90 509 m 1
 148 515 176 474 170 442 c 1
 164 402 138 378 100 378 c 1
 60 379 35 414 34 431 c 1
 29 470 56 502 90 509 c 1
30 340 m 1
 178 344 l 1
 172.209960938 214.235351562 192.05859375 133.1015625 202 6 c 1
 200.961914062 9.8798828125 20.28125 6.0888671875 22 8 c 0
 29.3525390625 16.1748046875 44.59375 202.234375 30 340 c 1
EndSplineSet
EndChar

StartChar: n
Encoding: 110 110 6
Width: 421
Flags: HW
LayerCount: 5
Fore
SplineSet
14 6 m 17
 32.404296875 148.688476562 20.2998046875 287.763671875 18 428 c 1
 134 438 l 25
 142 385 l 1
 220.865234375 463.65234375 325 431 368 391 c 1
 432 324 413 121 384 6 c 1
 286 8 l 1
 296.620117188 82.884765625 317.115234375 164.506835938 304 250 c 1
 274.014648438 376.337890625 163.573242188 299.908203125 143 250 c 1
 150 148 132.463867188 84.3662109375 115 5 c 1
 14 6 l 17
EndSplineSet
EndChar

StartChar: j
Encoding: 106 106 7
Width: 256
Flags: HW
LayerCount: 5
Fore
SplineSet
168 414 m 5
 192 406 219 391 217 362 c 5
 215 339 187.08984375 324.653320312 164 324 c 5
 147 323 119 334 114 364 c 5
 107 409 141 424 168 414 c 5
106 298 m 5
 139.864257812 294.850585938 161.693359375 280.594726562 220 300 c 5
 208.954101562 185.434570312 228.568359375 55.080078125 236 -69 c 5
 238 -116 198 -191 126 -196 c 5
 88 -197 48.66796875 -194.432617188 10 -158 c 5
 -12.7236328125 -133.989257812 -33.3505859375 -108.379882812 -32 -66 c 5
 -7.6943359375 -58.1220703125 16.8779296875 -51.240234375 36 -24 c 5
 51.3916015625 -54.953125 86 -116 114 -111 c 5
 182 -102 157 -66 150 -32 c 5
 126.979492188 80.2646484375 100.541992188 193.45703125 106 298 c 5
EndSplineSet
EndChar

StartChar: ccaron
Encoding: 232 269 8
Width: 346
Flags: HW
LayerCount: 5
Fore
SplineSet
116 405 m 1
 127.241210938 411.451171875 138.373046875 418.2109375 147 432 c 1
 158.943359375 424.548828125 166.323242188 415.869140625 173 407 c 1
 181.66015625 420.461914062 189.51953125 428.514648438 197 434 c 1
 206.081054688 423.633789062 217.274414062 415.9765625 229 409 c 1
 212.296875 397.286132812 203.533203125 379.866210938 194 363 c 1
 161 361 l 1
 150.803710938 378.015625 134.120117188 391.859375 116 405 c 1
324 55 m 1
 281.3203125 28.0751953125 231.942382812 8.2822265625 168 4 c 1
 107.666015625 1.267578125 11 18 21 108 c 1
 28.50390625 176.622070312 47 246 106 297 c 1
 134 322 211.333984375 332.999023438 278 321 c 1
 279.666992188 297.000976562 287.333984375 274.333984375 301 253 c 1
 251.333007812 249.033203125 201.666992188 240.522460938 152 215 c 1
 119.98828125 190.693359375 112 163 121 127 c 1
 132 99 151 88 167 93 c 1
 260 127 l 1
 302.37109375 63.8271484375 295 76 324 55 c 1
EndSplineSet
EndChar

StartChar: e
Encoding: 101 101 10
Width: 412
Flags: HW
LayerCount: 5
Fore
SplineSet
240 329 m 1
 197.404296875 336.190429688 157.015625 334.306640625 125 298 c 1
 106 278 113.91796875 254.7109375 162 256 c 1
 200.311523438 255.095703125 232.833007812 263.041015625 266 270 c 1
 284 278 278 323 240 329 c 1
344 165 m 1
 353.658203125 132.4140625 373.443359375 105.626953125 397 81 c 1
 341.712890625 53.05859375 285.399414062 26.1201171875 217 11 c 1
 119.506835938 -1.748046875 59.7802734375 23.6162109375 25 91 c 1
 -3.4853515625 163.397460938 -3 227 22 288 c 1
 59.3349609375 343.69140625 129.010742188 391.341796875 201 395 c 1
 324.153320312 403.626953125 332.2265625 304.826171875 364 233 c 1
 254.438476562 201.4375 225.98046875 207.758789062 153 204 c 1
 113.346679688 191.662109375 103 130 142 108 c 1
 171.911132812 92.375 203.426757812 92.87109375 236 104 c 1
 344 165 l 1
EndSplineSet
EndChar

StartChar: v
Encoding: 118 118 11
Width: 498
Flags: HW
LayerCount: 5
Fore
SplineSet
206 4 m 1
 156.001953125 122.944335938 91.326171875 240.001953125 9 351 c 1
 93 422 l 1
 150.57421875 355.165039062 207.826171875 283.349609375 262 164 c 1
 299.258789062 258.3671875 337.610351562 350.841796875 390 419 c 1
 484 376 l 1
 428.729492188 262.767578125 365.438476562 138.611328125 340 4 c 1
 298.34765625 10.029296875 255.556640625 13.779296875 206 4 c 1
EndSplineSet
EndChar

StartChar: cacute
Encoding: 230 263 12
Width: 462
Flags: HW
LayerCount: 5
Fore
SplineSet
258 537 m 17
 248.923828125 495.715820312 232.530273438 467.23828125 216 439 c 1
 312 438 l 17
 328.666992188 468.000976562 341.333007812 499.333984375 350 532 c 1
 258 537 l 17
435 107 m 1
 358.870117188 22.4326171875 310.323242188 14.044921875 250 3 c 1
 131.885742188 -4.16796875 100 9 45 71 c 1
 -7.9326171875 133.342773438 17.892578125 243.280273438 53 303 c 1
 135 407 282.008789062 405.900390625 406 361 c 1
 397.861328125 330.814453125 388.565429688 301.323242188 389 266 c 1
 290.036132812 290.567382812 131 306 152 187 c 1
 163 147 185.66015625 61.748046875 378 187 c 1
 395.163085938 158.927734375 407.864257812 121.888671875 435 107 c 1
EndSplineSet
EndChar

StartChar: Ccaron
Encoding: 200 268 13
Width: 544
Flags: HW
LayerCount: 5
Fore
SplineSet
285 658 m 5
 216 654 l 5
 202.725962973 697.412704489 182.133981929 731.067702742 161 764 c 5
 223 786 l 5
 241.432817323 765.073466785 246.539275171 739.157612957 251 713 c 5
 256.344004222 737.333333333 260.534603674 761.666666667 281 786 c 5
 346 775 l 5
 323.031795764 738.54076262 299.88243441 702.256212064 285 658 c 5
515 558 m 21
 360.359375 636.178710938 189 659 101 567 c 5
 -32.4111328125 371.444335938 -12 179 108 77 c 5
 260 -56 414.021484375 19.0205078125 521 83 c 5
 503 194 l 5
 367.842773438 125.583007812 206 153 178 207 c 5
 148 243 154 374 179 424 c 5
 262.161132812 550.453125 391.67578125 477.07421875 513 439 c 5
 515 558 l 21
EndSplineSet
EndChar

StartChar: Cacute
Encoding: 198 262 14
Width: 544
Flags: HW
LayerCount: 5
Fore
SplineSet
228 660 m 1
 235.08984375 698.534179688 243.000976562 740.70703125 262 774 c 5
 328 768 l 1
 313.112704565 730.000000007 301.333292332 691.999999994 299 654 c 1
 228 660 l 1
515 558 m 17
 360.359375 636.178710938 189 659 101 567 c 1
 -32.4111328125 371.444335938 -12 179 108 77 c 1
 260 -56 414.021484375 19.0205078125 521 83 c 1
 503 194 l 1
 367.842773438 125.583007812 206 153 178 207 c 1
 148 243 154 374 179 424 c 1
 262.161132812 550.453125 391.67578125 477.07421875 513 439 c 1
 515 558 l 17
EndSplineSet
EndChar

StartChar: Zcaron
Encoding: 174 381 15
Width: 416
Flags: HW
LayerCount: 5
Fore
SplineSet
85 730 m 9
 148 754 l 1
 160.959960938 739.387695312 174.146484375 725.008789062 177 700 c 1
 185.047851562 719.365234375 200.806640625 736.251953125 217 753 c 9
 217 753 264.782226562 737.377929688 264 738 c 0
 259.092773438 741.90234375 198.801757812 653.094726562 205 649 c 9
 158 640 l 1
 138.998046875 676.18359375 115.484375 707.133789062 85 730 c 9
13 571 m 1
 124.958984375 584.327148438 235.393554688 600.639648438 355 599 c 1
 364 466 l 1
 306.599609375 345.4765625 252.729492188 224.373046875 164 109 c 1
 243.333007812 116 318.666015625 117 390 112 c 9
 399 13 l 1
 284.42578125 17.373046875 169.22265625 17.5009765625 52 4 c 1
 37 112 l 1
 138.876953125 241.30078125 183.626953125 360.125976562 245 482 c 1
 170.041992188 488.741210938 99.6962890625 480.430664062 30 470 c 1
 30.4814453125 510.88671875 21.3017578125 540.427734375 13 571 c 1
EndSplineSet
EndChar

StartChar: zcaron
Encoding: 190 382 16
Width: 304
Flags: HW
LayerCount: 5
Fore
SplineSet
92 459 m 9
 135 462 l 17
 142.380054857 452.482720272 150.936116405 444.200436801 151 427 c 1
 155.526109684 438 163.749611451 449 174 460 c 9
 174 460 207.78466987 455.097252275 206 456 c 0
 204.514942281 456.75119354 162.557502189 392.819754601 171 391 c 9
 137 394 l 17
 128.173927568 415.666666669 110.749246974 437.33333333 92 459 c 9
19 366 m 1
 21.671875 378.024414062 295.814453125 365.430664062 284 368 c 0
 277.502929688 369.413085938 114.279296875 76.91796875 122 74 c 1
 173 83.84765625 224 79.3935546875 275 76 c 1
 275 7 l 17
 192.775390625 12.4150390625 111.893554688 20.642578125 22 10 c 1
 29 89 l 17
 63.451171875 161.02734375 103.305664062 230.9296875 158 295 c 1
 114.978515625 304.744140625 68.5048828125 295.16015625 23 291 c 1
 19 366 l 1
EndSplineSet
EndChar

StartChar: Scaron
Encoding: 169 352 17
Width: 297
Flags: HW
LayerCount: 5
Fore
SplineSet
90 425 m 1
 121 452 l 1
 137.072234413 440.130473469 148.891363229 426.195026941 154 409 c 1
 161.1546595 422.089882191 169.73694043 434.560363613 183 445 c 9
 219 437 l 1
 200.255217601 415.826314548 185.830191089 391.169066857 177 362 c 9
 146 363 l 1
 126.000018106 391.66594797 107.333351447 412.332614654 90 425 c 1
9 71 m 1
 19.5087890625 92.6669921875 28.595703125 114.333007812 34 136 c 1
 127 17 243.921875 73.6298828125 196 157 c 1
 170 197 37.44140625 165.474609375 44 269 c 1
 52 343 126 351 258 330 c 1
 252 311 244 306 252 274 c 1
 233.170898438 275.943359375 81.76953125 315.051757812 113 251 c 1
 132 216 279 215 284 127 c 1
 284 127 284 86 258 55 c 0
 234.608398438 27.1103515625 141.317382812 -53.419921875 9 71 c 1
EndSplineSet
EndChar

StartChar: scaron
Encoding: 185 353 18
Width: 444
Flags: HW
LayerCount: 5
Fore
SplineSet
144 704 m 9
 193 738 l 1
 209.041992188 721.200195312 224.8125 708.018554688 242 676 c 1
 236.189453125 678.928710938 278.158203125 735.959960938 289 732 c 0
 290.328125 731.514648438 329.541992188 699.159179688 329 700 c 0
 323.434570312 708.638671875 261.421875 628.338867188 267 621 c 9
 220 623 l 1
 195.90234375 650 179.46484375 677 144 704 c 9
15 104 m 1
 38.5634765625 133.2421875 50.9375 164.094726562 56 196 c 1
 173.6953125 76.013671875 394 73 293 236 c 1
 265 295 16.12109375 379.1875 68 495 c 1
 106.895507812 618.461914062 334.239257812 626.59765625 416 525 c 1
 406.063476562 496.666992188 408.525390625 468.333007812 411 440 c 1
 312.360351562 503.908203125 116 527 199 441 c 1
 266.798828125 394.28125 338.484375 346.602539062 399 277 c 1
 428 248 436.705078125 178.447265625 423 147 c 1
 349.16796875 -51.4775390625 152.977539062 -26.5166015625 15 104 c 1
EndSplineSet
EndChar

StartChar: Dcroat
Encoding: 208 272 19
Width: 493
Flags: HW
LayerCount: 5
Fore
SplineSet
211 510 m 1
 203 376 l 25
 281 375 l 25
 278 287 l 25
 193 284 l 25
 198 105 l 1
 344.682617188 120.713867188 411 224 403 331 c 1
 407 400 325.751953125 504.470703125 211 510 c 1
122 6 m 9
 117 287 l 1
 16 288 l 25
 15 368 l 1
 116 373 l 25
 116 373 114.5859375 716.965820312 116 717 c 0
 323 722 468 587 477 345 c 1
 476 229 485 13 122 6 c 9
EndSplineSet
EndChar

StartChar: dcroat
Encoding: 240 273 20
Width: 400
Flags: HW
LayerCount: 5
Fore
SplineSet
225 158 m 1
 213 179 178.577148438 189.834960938 161 185 c 1
 121 173 107 144 112 124 c 1
 124.01171875 82.9990234375 148 77 174 79 c 1
 223.190429688 79.76171875 245 127 225 158 c 1
252 493 m 1
 345 497 l 1
 344.327148438 456.01953125 337.447265625 413.58203125 347 375 c 1
 382 377 l 1
 384 310 l 1
 345 311 l 1
 338.594726562 208.196289062 336.227539062 107.833984375 343 13 c 9
 255 13 l 25
 254 59 l 1
 262 9 108.444335938 -29.2216796875 48 35 c 0
 0 86 -4.013671875 197.905273438 62 245 c 1
 99 280 207.935546875 269.62890625 253 246 c 1
 255.192382812 263.6875 256.4921875 282.78125 252 311 c 1
 217 310 l 1
 219 366 l 1
 250 368 l 1
 255.84375 409.666992188 254.254882812 451.333007812 252 493 c 1
EndSplineSet
EndChar
